<svg data-v-423bf9ae="" xmlns="http://www.w3.org/2000/svg" viewBox="0 0 497 90" class="iconLeft"><!----><!----><!----><g data-v-423bf9ae="" id="d63259b3-7a6f-459b-b3fe-585d80e842a1" fill="white" transform="matrix(6.4516127709088735,0,0,6.4516127709088735,61.31425077626565,6.22580832741221)"><path d="M6.94 2.30L6.26 3.95L6.26 3.95Q5.73 3.54 5.16 3.32L5.16 3.32L5.16 3.32Q4.59 3.09 4.09 3.09L4.09 3.09L4.09 3.09Q3.54 3.09 3.28 3.24L3.28 3.24L3.28 3.24Q3.01 3.39 3.01 3.88L3.01 3.88L3.01 3.88Q3.01 4.13 3.12 4.31L3.12 4.31L3.12 4.31Q3.22 4.49 3.42 4.63L3.42 4.63L3.42 4.63Q3.61 4.77 3.89 4.88L3.89 4.88L3.89 4.88Q4.16 4.98 4.48 5.10L4.48 5.10L4.48 5.10Q4.96 5.25 5.45 5.45L5.45 5.45L5.45 5.45Q5.94 5.64 6.33 5.95L6.33 5.95L6.33 5.95Q6.73 6.26 6.99 6.73L6.99 6.73L6.99 6.73Q7.24 7.21 7.24 7.94L7.24 7.94L7.24 7.94Q7.24 8.65 6.96 9.16L6.96 9.16L6.96 9.16Q6.69 9.67 6.24 10.00L6.24 10.00L6.24 10.00Q5.80 10.33 5.22 10.49L5.22 10.49L5.22 10.49Q4.65 10.65 4.03 10.65L4.03 10.65L4.03 10.65Q3.14 10.65 2.26 10.30L2.26 10.30L2.26 10.30Q1.39 9.95 0.74 9.27L0.74 9.27L1.41 7.67L1.41 7.67Q1.99 8.27 2.71 8.61L2.71 8.61L2.71 8.61Q3.43 8.95 4.09 8.95L4.09 8.95L4.09 8.95Q4.68 8.95 4.99 8.78L4.99 8.78L4.99 8.78Q5.31 8.61 5.32 8.09L5.32 8.09L5.32 8.09Q5.32 7.80 5.21 7.59L5.21 7.59L5.21 7.59Q5.10 7.38 4.89 7.22L4.89 7.22L4.89 7.22Q4.68 7.07 4.40 6.96L4.40 6.96L4.40 6.96Q4.12 6.85 3.78 6.73L3.78 6.73L3.78 6.73Q3.30 6.58 2.83 6.39L2.83 6.39L2.83 6.39Q2.35 6.20 1.97 5.89L1.97 5.89L1.97 5.89Q1.60 5.59 1.36 5.13L1.36 5.13L1.36 5.13Q1.13 4.68 1.13 3.98L1.13 3.98L1.13 3.98Q1.13 3.28 1.39 2.78L1.39 2.78L1.39 2.78Q1.64 2.28 2.06 1.97L2.06 1.97L2.06 1.97Q2.48 1.65 3.02 1.50L3.02 1.50L3.02 1.50Q3.57 1.36 4.16 1.36L4.16 1.36L4.16 1.36Q4.91 1.36 5.63 1.61L5.63 1.61L5.63 1.61Q6.36 1.86 6.94 2.30L6.94 2.30ZM12.36 10.65L12.36 10.65L12.36 10.65Q11.20 10.65 10.44 10.35L10.44 10.35L10.44 10.35Q9.69 10.04 9.23 9.52L9.23 9.52L9.23 9.52Q8.78 9.00 8.60 8.32L8.60 8.32L8.60 8.32Q8.41 7.64 8.41 6.89L8.41 6.89L8.41 6.89Q8.41 6.22 8.60 5.54L8.60 5.54L8.60 5.54Q8.78 4.87 9.18 4.33L9.18 4.33L9.18 4.33Q9.58 3.79 10.22 3.46L10.22 3.46L10.22 3.46Q10.86 3.12 11.79 3.12L11.79 3.12L11.79 3.12Q12.77 3.12 13.42 3.46L13.42 3.46L13.42 3.46Q14.07 3.79 14.46 4.33L14.46 4.33L14.46 4.33Q14.85 4.87 15.02 5.54L15.02 5.54L15.02 5.54Q15.18 6.22 15.18 6.89L15.18 6.89L15.18 7.52L10.22 7.52L10.22 7.52Q10.22 8.27 10.76 8.76L10.76 8.76L10.76 8.76Q11.30 9.25 12.24 9.25L12.24 9.25L12.24 9.25Q12.77 9.25 13.22 9.14L13.22 9.14L13.22 9.14Q13.66 9.03 13.99 8.89L13.99 8.89L13.99 8.89Q14.35 8.74 14.66 8.53L14.66 8.53L14.66 10.09L14.66 10.09Q14.66 10.11 14.48 10.19L14.48 10.19L14.48 10.19Q14.29 10.28 13.99 10.38L13.99 10.38L13.99 10.38Q13.68 10.49 13.26 10.57L13.26 10.57L13.26 10.57Q12.84 10.65 12.36 10.65ZM10.22 6.19L13.40 6.19L13.40 6.19Q13.40 5.95 13.34 5.66L13.34 5.66L13.34 5.66Q13.27 5.38 13.10 5.12L13.10 5.12L13.10 5.12Q12.92 4.87 12.61 4.70L12.61 4.70L12.61 4.70Q12.29 4.54 11.79 4.54L11.79 4.54L11.79 4.54Q11.35 4.54 11.05 4.70L11.05 4.70L11.05 4.70Q10.75 4.87 10.57 5.12L10.57 5.12L10.57 5.12Q10.39 5.38 10.30 5.66L10.30 5.66L10.30 5.66Q10.22 5.95 10.22 6.19L10.22 6.19ZM21.08 3.18L21.08 5.10L21.08 5.10Q20.76 5.03 20.50 5.02L20.50 5.02L20.50 5.02Q20.24 5.01 20.02 5.03L20.02 5.03L20.02 5.03Q19.57 5.05 19.29 5.22L19.29 5.22L19.29 5.22Q19.00 5.39 18.84 5.66L18.84 5.66L18.84 5.66Q18.69 5.94 18.63 6.28L18.63 6.28L18.63 6.28Q18.58 6.62 18.58 6.99L18.58 6.99L18.58 10.50L16.69 10.50L16.69 3.36L18.07 3.36L18.37 4.93L18.37 4.93Q18.37 4.93 18.40 4.77L18.40 4.77L18.40 4.77Q18.44 4.61 18.54 4.38L18.54 4.38L18.54 4.38Q18.65 4.14 18.84 3.88L18.84 3.88L18.84 3.88Q19.04 3.63 19.34 3.43L19.34 3.43L19.34 3.43Q19.64 3.23 20.07 3.15L20.07 3.15L20.07 3.15Q20.50 3.07 21.08 3.18L21.08 3.18ZM27.05 3.29L28.90 3.29L26.24 10.50L24.12 10.50L21.45 3.29L23.30 3.29L25.19 8.54L27.05 3.29ZM27.05 3.29L28.90 3.29L26.24 10.50L24.12 10.50L21.45 3.29L23.30 3.29L25.19 8.54L27.05 3.29ZM33.52 10.65L33.52 10.65L33.52 10.65Q32.35 10.65 31.60 10.35L31.60 10.35L31.60 10.35Q30.84 10.04 30.39 9.52L30.39 9.52L30.39 9.52Q29.93 9.00 29.75 8.32L29.75 8.32L29.75 8.32Q29.57 7.64 29.57 6.89L29.57 6.89L29.57 6.89Q29.57 6.22 29.75 5.54L29.75 5.54L29.75 5.54Q29.93 4.87 30.33 4.33L30.33 4.33L30.33 4.33Q30.73 3.79 31.37 3.46L31.37 3.46L31.37 3.46Q32.02 3.12 32.94 3.12L32.94 3.12L32.94 3.12Q33.92 3.12 34.57 3.46L34.57 3.46L34.57 3.46Q35.22 3.79 35.62 4.33L35.62 4.33L35.62 4.33Q36.01 4.87 36.17 5.54L36.17 5.54L36.17 5.54Q36.33 6.22 36.33 6.89L36.33 6.89L36.33 7.52L31.37 7.52L31.37 7.52Q31.37 8.27 31.91 8.76L31.91 8.76L31.91 8.76Q32.45 9.25 33.39 9.25L33.39 9.25L33.39 9.25Q33.92 9.25 34.37 9.14L34.37 9.14L34.37 9.14Q34.82 9.03 35.14 8.89L35.14 8.89L35.14 8.89Q35.50 8.74 35.81 8.53L35.81 8.53L35.81 10.09L35.81 10.09Q35.81 10.11 35.63 10.19L35.63 10.19L35.63 10.19Q35.45 10.28 35.14 10.38L35.14 10.38L35.14 10.38Q34.83 10.49 34.41 10.57L34.41 10.57L34.41 10.57Q33.99 10.65 33.52 10.65ZM31.37 6.19L34.55 6.19L34.55 6.19Q34.55 5.95 34.49 5.66L34.49 5.66L34.49 5.66Q34.43 5.38 34.25 5.12L34.25 5.12L34.25 5.12Q34.08 4.87 33.76 4.70L33.76 4.70L33.76 4.70Q33.45 4.54 32.94 4.54L32.94 4.54L32.94 4.54Q32.51 4.54 32.21 4.70L32.21 4.70L32.21 4.70Q31.91 4.87 31.72 5.12L31.72 5.12L31.72 5.12Q31.54 5.38 31.46 5.66L31.46 5.66L31.46 5.66Q31.37 5.95 31.37 6.19L31.37 6.19ZM42.24 3.18L42.24 5.10L42.24 5.10Q41.92 5.03 41.66 5.02L41.66 5.02L41.66 5.02Q41.40 5.01 41.17 5.03L41.17 5.03L41.17 5.03Q40.73 5.05 40.44 5.22L40.44 5.22L40.44 5.22Q40.15 5.39 40.00 5.66L40.00 5.66L40.00 5.66Q39.84 5.94 39.79 6.28L39.79 6.28L39.79 6.28Q39.73 6.62 39.73 6.99L39.73 6.99L39.73 10.50L37.84 10.50L37.84 3.36L39.23 3.36L39.52 4.93L39.52 4.93Q39.52 4.93 39.56 4.77L39.56 4.77L39.56 4.77Q39.59 4.61 39.70 4.38L39.70 4.38L39.70 4.38Q39.80 4.14 40.00 3.88L40.00 3.88L40.00 3.88Q40.19 3.63 40.50 3.43L40.50 3.43L40.50 3.43Q40.80 3.23 41.22 3.15L41.22 3.15L41.22 3.15Q41.65 3.07 42.24 3.18L42.24 3.18ZM45.33 8.48L45.33 8.48L45.33 8.48Q45.35 8.72 45.46 8.86L45.46 8.86L45.46 8.86Q45.57 9.00 45.73 9.06L45.73 9.06L45.73 9.06Q45.89 9.13 46.10 9.13L46.10 9.13L46.10 9.13Q46.30 9.14 46.52 9.11L46.52 9.11L46.52 10.56L46.52 10.56Q46.33 10.60 46.18 10.62L46.18 10.62L46.18 10.62Q46.03 10.64 45.92 10.65L45.92 10.65L45.92 10.65Q45.79 10.67 45.71 10.65L45.71 10.65L45.71 10.65Q45.18 10.65 44.76 10.61L44.76 10.61L44.76 10.61Q44.34 10.57 44.04 10.34L44.04 10.34L44.04 10.34Q43.75 10.11 43.60 9.64L43.60 9.64L43.60 9.64Q43.44 9.17 43.44 8.30L43.44 8.30L43.44 1.55L45.33 1.55L45.33 8.48ZM51.74 10.65L51.74 10.65L51.74 10.65Q50.58 10.65 49.83 10.35L49.83 10.35L49.83 10.35Q49.07 10.04 48.62 9.52L48.62 9.52L48.62 9.52Q48.16 9.00 47.98 8.32L47.98 8.32L47.98 8.32Q47.80 7.64 47.80 6.89L47.80 6.89L47.80 6.89Q47.80 6.22 47.98 5.54L47.98 5.54L47.98 5.54Q48.16 4.87 48.56 4.33L48.56 4.33L48.56 4.33Q48.96 3.79 49.60 3.46L49.60 3.46L49.60 3.46Q50.25 3.12 51.17 3.12L51.17 3.12L51.17 3.12Q52.15 3.12 52.80 3.46L52.80 3.46L52.80 3.46Q53.45 3.79 53.84 4.33L53.84 4.33L53.84 4.33Q54.24 4.87 54.40 5.54L54.40 5.54L54.40 5.54Q54.56 6.22 54.56 6.89L54.56 6.89L54.56 7.52L49.60 7.52L49.60 7.52Q49.60 8.27 50.14 8.76L50.14 8.76L50.14 8.76Q50.68 9.25 51.62 9.25L51.62 9.25L51.62 9.25Q52.15 9.25 52.60 9.14L52.60 9.14L52.60 9.14Q53.05 9.03 53.37 8.89L53.37 8.89L53.37 8.89Q53.73 8.74 54.04 8.53L54.04 8.53L54.04 10.09L54.04 10.09Q54.04 10.11 53.86 10.19L53.86 10.19L53.86 10.19Q53.68 10.28 53.37 10.38L53.37 10.38L53.37 10.38Q53.06 10.49 52.64 10.57L52.64 10.57L52.64 10.57Q52.22 10.65 51.74 10.65ZM49.60 6.19L52.78 6.19L52.78 6.19Q52.78 5.95 52.72 5.66L52.72 5.66L52.72 5.66Q52.65 5.38 52.48 5.12L52.48 5.12L52.48 5.12Q52.30 4.87 51.99 4.70L51.99 4.70L51.99 4.70Q51.67 4.54 51.17 4.54L51.17 4.54L51.17 4.54Q50.74 4.54 50.44 4.70L50.44 4.70L50.44 4.70Q50.13 4.87 49.95 5.12L49.95 5.12L49.95 5.12Q49.77 5.38 49.69 5.66L49.69 5.66L49.69 5.66Q49.60 5.95 49.60 6.19L49.60 6.19ZM60.83 3.98L60.20 5.39L60.20 5.39Q59.72 5.03 59.16 4.84L59.16 4.84L59.16 4.84Q58.60 4.66 58.23 4.66L58.23 4.66L58.23 4.66Q57.86 4.66 57.65 4.79L57.65 4.79L57.65 4.79Q57.44 4.91 57.44 5.24L57.44 5.24L57.44 5.24Q57.44 5.52 57.71 5.68L57.71 5.68L57.71 5.68Q57.97 5.85 58.37 6.00L58.37 6.00L58.37 6.00Q58.76 6.15 59.22 6.31L59.22 6.31L59.22 6.31Q59.68 6.47 60.07 6.73L60.07 6.73L60.07 6.73Q60.47 6.99 60.73 7.38L60.73 7.38L60.73 7.38Q61.00 7.78 61.00 8.40L61.00 8.40L61.00 8.40Q61.00 8.99 60.78 9.41L60.78 9.41L60.78 9.41Q60.56 9.84 60.21 10.12L60.21 10.12L60.21 10.12Q59.85 10.39 59.39 10.52L59.39 10.52L59.39 10.52Q58.93 10.65 58.44 10.65L58.44 10.65L58.44 10.65Q58.09 10.65 57.69 10.58L57.69 10.58L57.69 10.58Q57.29 10.50 56.90 10.34L56.90 10.34L56.90 10.34Q56.52 10.18 56.16 9.95L56.16 9.95L56.16 9.95Q55.80 9.72 55.54 9.42L55.54 9.42L56.15 8.05L56.15 8.05Q56.64 8.58 57.20 8.86L57.20 8.86L57.20 8.86Q57.76 9.13 58.23 9.13L58.23 9.13L58.23 9.13Q58.62 9.13 58.98 8.99L58.98 8.99L58.98 8.99Q59.35 8.85 59.36 8.51L59.36 8.51L59.36 8.51Q59.37 8.19 59.12 7.99L59.12 7.99L59.12 7.99Q58.86 7.78 58.46 7.63L58.46 7.63L58.46 7.63Q58.07 7.48 57.61 7.31L57.61 7.31L57.61 7.31Q57.15 7.15 56.76 6.90L56.76 6.90L56.76 6.90Q56.36 6.65 56.10 6.27L56.10 6.27L56.10 6.27Q55.83 5.89 55.85 5.29L55.85 5.29L55.85 5.29Q55.85 4.72 56.05 4.30L56.05 4.30L56.05 4.30Q56.25 3.89 56.59 3.63L56.59 3.63L56.59 3.63Q56.92 3.37 57.37 3.25L57.37 3.25L57.37 3.25Q57.81 3.12 58.28 3.12L58.28 3.12L58.28 3.12Q58.56 3.12 58.90 3.18L58.90 3.18L58.90 3.18Q59.23 3.23 59.58 3.35L59.58 3.35L59.58 3.35Q59.92 3.46 60.25 3.61L60.25 3.61L60.25 3.61Q60.58 3.77 60.83 3.98L60.83 3.98ZM67.33 3.98L66.70 5.39L66.70 5.39Q66.22 5.03 65.66 4.84L65.66 4.84L65.66 4.84Q65.10 4.66 64.72 4.66L64.72 4.66L64.72 4.66Q64.36 4.66 64.15 4.79L64.15 4.79L64.15 4.79Q63.94 4.91 63.94 5.24L63.94 5.24L63.94 5.24Q63.94 5.52 64.20 5.68L64.20 5.68L64.20 5.68Q64.47 5.85 64.86 6.00L64.86 6.00L64.86 6.00Q65.25 6.15 65.72 6.31L65.72 6.31L65.72 6.31Q66.18 6.47 66.57 6.73L66.57 6.73L66.57 6.73Q66.96 6.99 67.23 7.38L67.23 7.38L67.23 7.38Q67.49 7.78 67.49 8.40L67.49 8.40L67.49 8.40Q67.49 8.99 67.28 9.41L67.28 9.41L67.28 9.41Q67.06 9.84 66.70 10.12L66.70 10.12L66.70 10.12Q66.35 10.39 65.88 10.52L65.88 10.52L65.88 10.52Q65.42 10.65 64.93 10.65L64.93 10.65L64.93 10.65Q64.58 10.65 64.18 10.58L64.18 10.58L64.18 10.58Q63.78 10.50 63.40 10.34L63.40 10.34L63.40 10.34Q63.01 10.18 62.66 9.95L62.66 9.95L62.66 9.95Q62.30 9.72 62.03 9.42L62.03 9.42L62.65 8.05L62.65 8.05Q63.14 8.58 63.70 8.86L63.70 8.86L63.70 8.86Q64.26 9.13 64.72 9.13L64.72 9.13L64.72 9.13Q65.11 9.13 65.48 8.99L65.48 8.99L65.48 8.99Q65.84 8.85 65.86 8.51L65.86 8.51L65.86 8.51Q65.87 8.19 65.61 7.99L65.61 7.99L65.61 7.99Q65.35 7.78 64.96 7.63L64.96 7.63L64.96 7.63Q64.57 7.48 64.11 7.31L64.11 7.31L64.11 7.31Q63.64 7.15 63.25 6.90L63.25 6.90L63.25 6.90Q62.86 6.65 62.59 6.27L62.59 6.27L62.59 6.27Q62.33 5.89 62.34 5.29L62.34 5.29L62.34 5.29Q62.34 4.72 62.55 4.30L62.55 4.30L62.55 4.30Q62.75 3.89 63.08 3.63L63.08 3.63L63.08 3.63Q63.42 3.37 63.86 3.25L63.86 3.25L63.86 3.25Q64.30 3.12 64.78 3.12L64.78 3.12L64.78 3.12Q65.06 3.12 65.39 3.18L65.39 3.18L65.39 3.18Q65.73 3.23 66.07 3.35L66.07 3.35L66.07 3.35Q66.42 3.46 66.75 3.61L66.75 3.61L66.75 3.61Q67.07 3.77 67.33 3.98L67.33 3.98Z"></path></g><!----><g data-v-423bf9ae="" id="3ce3aadc-2d59-46c7-8f32-6aed03b2b740" transform="matrix(2.8125,0,0,2.8125,-21.194407999515533,0)" stroke="none" fill="white"><path d="M18.396 26.495L7.807 15.905 18.432 5.28l.707.707-9.918 9.918 9.882 9.883z"></path><path d="M23.194 1v4.194H19V1h4.194m1-1H18v6.194h6.194V0zM23.194 26.806V31H19v-4.194h4.194m1-1H18V32h6.194v-6.194z"></path></g><!----></svg>